PathFileType	4	(X/Y/Z)	/Users/itak/Documents/Research/Walk-IL/dataset/trc/00278_00010.trc
DataRate	CameraRate	NumFrames	NumMarkers	Units	OrigDataRate	OrigDataStartFrame	OrigNumFrames
100.000000	100.000000	4	54	mm	100.000000	483	552
Frame#	Time	RPSI			LPSI			L3			STRN			T10			C7			CLAV			RBAK			LBAK			LSHO			LUPA			LAEL			LAOL			LWTS			LWPS			LFRA			LIFD			LHPS			LHTS			RSHO			RUPA			RAEL			RAOL			RWTS			RWPS			RFRA			RIFD			RHTS			RHPS			RBHD			LFHD			RFHD			LBHD			LHIP			RASI			LASI			LKNE			LTHI			LANK			LTIP			LTOE			LMT1			LMT5			LHEE			RKNE			RTHI			RANK			RTIP			RTOE			RMT1			RMT5			RHEE			RHIP			*53			
		X1	Y1	Z1	X2	Y2	Z2	X3	Y3	Z3	X4	Y4	Z4	X5	Y5	Z5	X6	Y6	Z6	X7	Y7	Z7	X8	Y8	Z8	X9	Y9	Z9	X10	Y10	Z10	X11	Y11	Z11	X12	Y12	Z12	X13	Y13	Z13	X14	Y14	Z14	X15	Y15	Z15	X16	Y16	Z16	X17	Y17	Z17	X18	Y18	Z18	X19	Y19	Z19	X20	Y20	Z20	X21	Y21	Z21	X22	Y22	Z22	X23	Y23	Z23	X24	Y24	Z24	X25	Y25	Z25	X26	Y26	Z26	X27	Y27	Z27	X28	Y28	Z28	X29	Y29	Z29	X30	Y30	Z30	X31	Y31	Z31	X32	Y32	Z32	X33	Y33	Z33	X34	Y34	Z34	X35	Y35	Z35	X36	Y36	Z36	X37	Y37	Z37	X38	Y38	Z38	X39	Y39	Z39	X40	Y40	Z40	X41	Y41	Z41	X42	Y42	Z42	X43	Y43	Z43	X44	Y44	Z44	X45	Y45	Z45	X46	Y46	Z46	X47	Y47	Z47	X48	Y48	Z48	X49	Y49	Z49	X50	Y50	Z50	X51	Y51	Z51	X52	Y52	Z52	X53	Y53	Z53	X54	Y54	Z54	

484	4.83	-404.5606994628906	1016.875366210938	278.7827758789062	-231.3889617919922	1003.764343261719	251.2086639404297	-313.7077941894531	1079.107421875	280.0023498535156	-257.6049499511719	1248.800903320312	527.4100952148438	-316.2723693847656	1200.165893554688	266.9129028320312	-285.0744934082031	1443.436645507812	316.4541015625	-263.9891967773438	1349.738159179688	466.5334167480469	-376.2391052246094	1309.371948242188	275.4529113769531	-186.2699737548828	1405.891723632812	279.3225708007812	-118.939079284668	1405.73876953125	360.1615600585938	-52.17995452880859	1289.663330078125	317.7582092285156	-44.45263671875	1085.607666015625	312.6702575683594	-109.149658203125	1077.866943359375	254.6848754882812	-88.82378387451172	860.2699584960938	383.0445251464844	-31.55352401733398	849.6442260742188	341.4848327636719	-37.75402069091797	980.9590454101562	319.6050415039062	-92.65785980224609	673.6700439453125	371.4702453613281	-35.04414367675781	761.4752197265625	339.9447021484375	-68.11416625976562	760.2567138671875	396.8609313964844	-425.3657836914062	1417.849731445312	415.2650756835938	-494.2045288085938	1362.05517578125	424.9193420410156	-564.312255859375	1103.074584960938	473.9683837890625	-490.5227355957031	1078.147094726562	418.7167663574219	-467.6275939941406	959.1478881835938	648.8600463867188	-546.9579467773438	929.401123046875	632.69970703125	-566.5900268554688	1050.54833984375	523.5081787109375	-442.23681640625	812.7056884765625	757.0369873046875	-464.4249572753906	882.4850463867188	741.9296875	-521.03857421875	850.8164672851562	712.2702026367188	-363.4220581054688	1595.371948242188	396.1398315429688	-185.8008575439453	1623.435913085938	510.3328552246094	-270.0442199707031	1615.468627929688	546.8145141601562	-228.3590087890625	1598.600708007812	340.6569213867188	-127.1964111328125	952.4844360351562	303.5374450683594	-399.2017822265625	964.6199951171875	502.8578186035156	-153.7194519042969	960.8374633789062	449.1210327148438	-153.7131500244141	488.5952758789062	397.2112121582031	-130.8903961181641	630.263427734375	378.2565612792969	-200.1405944824219	50.59706115722656	294.9791870117188	-168.7682800292969	264.6944885253906	341.9260559082031	-244.6194763183594	36.24530410766602	505.1310119628906	-288.3536987304688	29.35694122314453	436.0245361328125	-179.4756164550781	42.57254409790039	416.8309936523438	-261.4084167480469	43.10170745849609	251.9174499511719	-456.1871948242188	490.4754943847656	396.6195678710938	-480.9336547851562	752.6106567382812	441.7797241210938	-446.5719909667969	51.84383773803711	292.62841796875	-443.4580688476562	366.2722778320312	394.3572387695312	-380.0993957519531	41.03947067260742	486.5795288085938	-344.8862915039062	46.30212020874023	425.5578308105469	-458.5938720703125	38.54314422607422	396.6058349609375	-399.9983520507812	51.91161346435547	237.2401428222656	-490.3957824707031	964.43017578125	394.1080627441406	nan	nan	nan	
485	4.84	-403.9265747070312	1015.896728515625	280.7687683105469	-230.6002349853516	1003.608032226562	253.4037322998047	-312.759521484375	1078.20068359375	282.1250610351562	-257.3417053222656	1247.57080078125	529.4639282226562	-314.8193664550781	1199.559448242188	268.5938110351562	-283.488037109375	1442.807739257812	318.5500793457031	-263.3425598144531	1348.54541015625	468.6900634765625	-374.623291015625	1308.90673828125	276.6540222167969	-184.4093017578125	1404.9521484375	282.0228271484375	-117.6049118041992	1404.446166992188	363.3040466308594	-50.41521835327148	1288.459594726562	321.297119140625	-40.98332977294922	1084.243896484375	316.6232299804688	-105.7238388061523	1076.179077148438	258.6844482421875	-85.38408660888672	858.5465698242188	386.4861145019531	-27.74860382080078	848.3013305664062	345.2997436523438	-34.04982757568359	979.5582275390625	323.4981994628906	-87.38570404052734	671.609619140625	374.176025390625	-30.6219425201416	760.251953125	343.4522705078125	-64.33060455322266	758.5806274414062	400.0176696777344	-424.6123657226562	1416.725341796875	416.6279602050781	-493.41845703125	1360.503784179688	425.8805847167969	-561.32275390625	1100.686645507812	474.5994262695312	-487.7149353027344	1076.64111328125	418.7499389648438	-463.1142272949219	952.8042602539062	646.1669311523438	-542.669189453125	923.4383544921875	629.9912719726562	-562.9356079101562	1047.053833007812	523.6904296875	-436.9054565429688	804.237060546875	751.1459350585938	-459.3232421875	874.24658203125	737.5143432617188	-516.2100219726562	843.0859375	707.8348388671875	-362.2749328613281	1594.29833984375	398.0055541992188	-184.6845550537109	1623.14306640625	512.1387329101562	-268.8875427246094	1615.092651367188	548.6497802734375	-227.17919921875	1597.682006835938	342.5445251464844	-126.3358001708984	952.4581909179688	306.1728515625	-398.6562805175781	963.2237548828125	504.8523864746094	-153.1250305175781	960.439453125	451.5282287597656	-153.3869476318359	488.3096313476562	395.310546875	-130.4892425537109	630.2327880859375	378.08935546875	-200.25048828125	50.20183944702148	294.8237609863281	-169.0411071777344	264.4072875976562	340.577880859375	-244.6016998291016	36.27849197387695	505.1731872558594	-288.392822265625	29.45570182800293	436.0310363769531	-179.4922485351562	42.55560302734375	416.7317504882812	-261.5852966308594	42.44772720336914	251.8627319335938	-455.6395568847656	489.3797912597656	395.5332946777344	-480.2353820800781	751.2103881835938	442.4471130371094	-446.2655639648438	50.80242919921875	292.2135925292969	-443.1063537597656	365.3874206542969	393.0645446777344	-380.1313781738281	41.09352874755859	486.4365234375	-344.8819274902344	46.11728286743164	425.3829345703125	-458.530517578125	38.38487243652344	396.3410034179688	-399.5694885253906	50.22726058959961	236.9156646728516	-489.6759033203125	963.0010375976562	395.959228515625	nan	nan	nan	
486	4.850000000000001	-403.3402404785156	1015.033813476562	282.6694030761719	-229.8836669921875	1003.542602539062	255.5011291503906	-311.9234924316406	1077.46337890625	284.1356811523438	-257.0599060058594	1246.440551757812	531.4929809570312	-313.5010070800781	1199.067504882812	270.1805419921875	-281.9564514160156	1442.271118164062	320.6156005859375	-262.6986694335938	1347.429809570312	470.7867736816406	-373.1290283203125	1308.579345703125	277.8535461425781	-182.6544952392578	1404.087524414062	284.6308898925781	-116.3410186767578	1403.20849609375	366.3158264160156	-48.73007202148438	1287.326293945312	324.6786499023438	-37.56534957885742	1082.964111328125	320.5307922363281	-102.3328170776367	1074.518188476562	262.63720703125	-81.87117004394531	856.9061279296875	390.0219421386719	-23.87450408935547	847.0054931640625	349.1383361816406	-30.33261871337891	978.25830078125	327.4152526855469	-82.43465423583984	669.7258911132812	377.10546875	-26.31232070922852	759.028564453125	346.9833984375	-60.41043472290039	756.9940185546875	403.3154296875	-423.85498046875	1415.731689453125	418.044921875	-492.6236877441406	1359.081176757812	426.9314880371094	-558.074951171875	1098.346435546875	475.1493530273438	-484.5900268554688	1075.297485351562	418.7589111328125	-458.65869140625	946.1568603515625	643.1209106445312	-538.4288940429688	917.2589721679688	626.7017211914062	-559.0665893554688	1043.564575195312	523.6531372070312	-431.9971008300781	795.2726440429688	744.5858154296875	-454.5064086914062	865.5326538085938	732.524658203125	-511.6985778808594	834.9876098632812	702.6503295898438	-361.095947265625	1593.310913085938	399.8688659667969	-183.4865570068359	1622.8349609375	513.89404296875	-267.6581115722656	1614.740478515625	550.452880859375	-225.9818572998047	1596.785766601562	344.3923034667969	-125.5143051147461	952.5239868164062	308.6766967773438	-398.1351928710938	961.9290771484375	506.7197265625	-152.5181732177734	960.1763305664062	453.814208984375	-153.0628051757812	488.1773376464844	393.5722045898438	-130.1441802978516	630.2753295898438	377.9849853515625	-200.2629852294922	49.87536239624023	294.7002563476562	-169.2146911621094	264.2526550292969	339.3364562988281	-244.585205078125	36.30836868286133	505.2018737792969	-288.4096069335938	29.52839851379395	436.0337524414062	-179.4802703857422	42.5374755859375	416.6586608886719	-261.6640625	41.95136642456055	251.8209686279297	-455.0411071777344	488.3788146972656	394.513916015625	-479.5343933105469	749.9037475585938	443.0606384277344	-445.9535827636719	49.91835403442383	291.8176879882812	-442.7211608886719	364.5896301269531	391.8597106933594	-380.1502685546875	41.14795684814453	486.300537109375	-344.8648376464844	45.93247985839844	425.2147216796875	-458.4510803222656	38.27987670898438	396.0969543457031	-399.1159973144531	48.70882034301758	236.6302032470703	-488.9902038574219	961.6581420898438	397.7191162109375	nan	nan	nan	
487	4.86	-402.7657470703125	1014.3095703125	284.4735412597656	-229.1969146728516	1003.548156738281	257.5164794921875	-311.1725158691406	1076.893310546875	286.0280456542969	-256.7688903808594	1245.447387695312	533.4893798828125	-312.3165588378906	1198.689697265625	271.6828002929688	-280.4950256347656	1441.83203125	322.6371154785156	-262.0607604980469	1346.429565429688	472.8135375976562	-371.75830078125	1308.385131835938	279.0638732910156	-181.0167999267578	1403.311767578125	287.1282043457031	-115.1592559814453	1402.063354492188	369.1771545410156	-47.14314651489258	1286.28125	327.9286499023438	-34.30663681030273	1081.834716796875	324.437255859375	-99.03157043457031	1072.925048828125	266.5411071777344	-78.32514953613281	855.4044799804688	393.66455078125	-19.95856475830078	845.8172607421875	353.0350646972656	-26.67556190490723	977.1190795898438	331.3951416015625	-77.83866882324219	668.0804443359375	380.2778930664062	-22.11966705322266	757.8623657226562	350.5845947265625	-56.41464614868164	755.55419921875	406.7749938964844	-423.0852355957031	1414.904052734375	419.51611328125	-491.8255004882812	1357.826782226562	428.0899047851562	-554.5701293945312	1096.093994140625	475.650146484375	-481.2149658203125	1074.16259765625	418.7281188964844	-454.2822265625	939.2708129882812	639.69921875	-534.2452392578125	910.9437866210938	622.8124389648438	-554.9937744140625	1040.142700195312	523.3897705078125	-427.5480346679688	785.8809204101562	737.29248046875	-449.9847717285156	856.4098510742188	726.9301147460938	-507.5016784667969	826.608154296875	696.6779174804688	-359.8856811523438	1592.442138671875	401.7314453125	-182.2071685791016	1622.511474609375	515.5982055664062	-266.3562316894531	1614.418701171875	552.2227783203125	-224.7723693847656	1595.934448242188	346.1958312988281	-124.707893371582	952.6538696289062	311.0382080078125	-397.6516418457031	960.7700805664062	508.4468078613281	-151.8908233642578	960.0201416015625	455.9992370605469	-152.8089904785156	488.1603698730469	391.9588317871094	-129.8905487060547	630.3553466796875	377.9025573730469	-200.2096405029297	49.61489105224609	294.6031799316406	-169.3261566162109	264.2001342773438	338.2175598144531	-244.5765228271484	36.3265495300293	505.2158203125	-288.4118957519531	29.57246208190918	436.0285949707031	-179.4534454345703	42.52006530761719	416.6057434082031	-261.6688537597656	41.59017181396484	251.7865447998047	-454.4045104980469	487.5045166015625	393.5914306640625	-478.8455505371094	748.7320556640625	443.6304016113281	-445.6435852050781	49.20717620849609	291.4506225585938	-442.3265686035156	363.9085693359375	390.7681274414062	-380.1607360839844	41.20087051391602	486.1723327636719	-344.842529296875	45.76010131835938	425.0582580566406	-458.3622436523438	38.216552734375	395.8789672851562	-398.6529846191406	47.40325927734375	236.3870544433594	-488.3431396484375	960.4498901367188	399.3655090332031	nan	nan	nan	
